<svg width="20" height="23" viewBox="0 0 20 23" fill="none" xmlns="http://www.w3.org/2000/svg">
<path d="M0.220703 3.74043C0.220703 3.00029 0.551107 2.29045 1.13923 1.76709C1.72735 1.24373 2.52502 0.949707 3.35675 0.949707L15.9009 0.949707C16.7327 0.949707 17.5303 1.24373 18.1184 1.76709C18.7066 2.29045 19.037 3.00029 19.037 3.74043V22.5778C19.0369 22.704 18.9984 22.8278 18.9255 22.9361C18.8526 23.0443 18.748 23.133 18.623 23.1925C18.498 23.2521 18.3571 23.2804 18.2155 23.2744C18.0738 23.2683 17.9367 23.2282 17.8186 23.1583L9.62883 19.2304L1.43906 23.1583C1.32099 23.2282 1.18383 23.2683 1.04218 23.2744C0.900523 23.2804 0.759684 23.2521 0.63466 23.1925C0.509636 23.133 0.405109 23.0443 0.332212 22.9361C0.259314 22.8278 0.220776 22.704 0.220703 22.5778V3.74043ZM3.35675 2.34507C2.94088 2.34507 2.54205 2.49208 2.24799 2.75376C1.95393 3.01544 1.78873 3.37036 1.78873 3.74043V21.2746L9.19449 17.8113C9.32317 17.7351 9.47428 17.6944 9.62883 17.6944C9.78339 17.6944 9.93451 17.7351 10.0632 17.8113L17.4689 21.2746V3.74043C17.4689 3.37036 17.3037 3.01544 17.0097 2.75376C16.7156 2.49208 16.3168 2.34507 15.9009 2.34507H3.35675Z" fill="#2C2C2C"/>
<path d="M3.35675 2.34507C2.94088 2.34507 2.54205 2.49208 2.24799 2.75376C1.95393 3.01544 1.78873 3.37036 1.78873 3.74043V21.2746L9.19449 17.8113C9.32317 17.7351 9.47428 17.6944 9.62883 17.6944C9.78339 17.6944 9.93451 17.7351 10.0632 17.8113L17.4689 21.2746V3.74043C17.4689 3.37036 17.3037 3.01544 17.0097 2.75376C16.7156 2.49208 16.3168 2.34507 15.9009 2.34507H3.35675Z" fill="#2C2C2C"/>
</svg>
