<svg width="24" height="23" viewBox="0 0 24 23" fill="none" xmlns="http://www.w3.org/2000/svg">
<path d="M23.862 4.93599C23.862 5.76526 23.591 6.57388 23.0866 7.24923C22.5823 7.92459 21.8698 8.43305 21.0484 8.7038C20.2269 8.97455 19.3375 8.99411 18.5038 8.75975C17.6702 8.5254 16.9339 8.0488 16.3975 7.39633L8.68063 11.0781C8.87106 11.7555 8.87106 12.4688 8.68063 13.1461L16.3975 16.8263C17.037 16.0495 17.9561 15.5269 18.9765 15.3599C19.9969 15.193 21.0459 15.3935 21.9201 15.9226C22.7944 16.4517 23.4316 17.2717 23.7083 18.2236C23.9849 19.1755 23.8813 20.1916 23.4175 21.0748C22.9537 21.958 22.1627 22.6453 21.1979 23.0037C20.2332 23.362 19.1633 23.3657 18.1958 23.0142C17.2283 22.6626 16.4321 21.9808 15.9615 21.1008C15.4909 20.2209 15.3795 19.2056 15.6489 18.2518L7.93201 14.5716C7.39573 15.2243 6.65947 15.7011 5.82579 15.9357C4.9921 16.1702 4.10251 16.1508 3.28094 15.8801C2.45937 15.6094 1.74674 15.101 1.24232 14.4256C0.737892 13.7502 0.466797 12.9415 0.466797 12.1121C0.466797 11.2827 0.737892 10.474 1.24232 9.79864C1.74674 9.12324 2.45937 8.61478 3.28094 8.3441C4.10251 8.07342 4.9921 8.054 5.82579 8.28854C6.65947 8.52307 7.39573 8.99989 7.93201 9.65257L15.6489 5.96924C15.4841 5.37858 15.4637 4.75972 15.5892 4.16035C15.7146 3.56097 15.9826 2.99708 16.3725 2.51213C16.7624 2.02718 17.2637 1.63412 17.8379 1.36323C18.4122 1.09235 19.0439 0.950871 19.6844 0.949707C20.7924 0.949707 21.855 1.36969 22.6384 2.11726C23.4219 2.86484 23.862 3.87876 23.862 4.93599Z" fill="#2C2C2C"/>
</svg>
